<?xml version="1.0" encoding="UTF-8" standalone="no"?><!DOCTYPE svg PUBLIC "-//W3C//DTD SVG 1.1//EN" "http://www.w3.org/Graphics/SVG/1.1/DTD/svg11.dtd"><svg width="100%" height="100%" viewBox="0 0 300 300" version="1.1" xmlns="http://www.w3.org/2000/svg" xmlns:xlink="http://www.w3.org/1999/xlink" xml:space="preserve" xmlns:serif="http://www.serif.com/" style="fill-rule:evenodd;clip-rule:evenodd;stroke-linejoin:round;stroke-miterlimit:2;"><path d="M192.997,38.124c-0,-0 -0.208,51.214 10.04,51.005c7.121,-0.104 11.604,-14.909 11.604,-19.288c0,-4.38 -2.815,-13.867 -2.815,-13.867c-0,-0 8.758,-18.383 3.962,-22.798c-4.796,-4.415 -22.791,4.948 -22.791,4.948Zm32.696,7.006l-6.777,15.431l3.649,11.365c-0,-0 12.094,1.772 17.62,-4.379c5.526,-6.152 11.156,-16.057 11.156,-16.057c0,0 -5.943,-8.341 -12.511,-8.966c-6.569,-0.626 -13.137,2.606 -13.137,2.606Zm-3.128,36.909c-0,0 -17.412,25.857 -14.388,28.36c3.023,2.502 20.644,-0.73 23.876,-9.384c0.188,-2.72 -0.763,-4.348 0.73,-6.256c2.56,-3.061 6.03,-3.324 6.03,-5.629c-0,-2.306 -4.609,-10.082 -16.248,-7.091Zm13.993,36.142c-0,0 5.808,-11.274 9.532,-11.684c1.81,-0.205 8.131,3.997 8.131,3.997c-0,0 0.82,6.321 -3.622,9.395c-5.978,0.445 -10.762,1.265 -14.041,-1.708Zm-24.412,33.276c0,-0 -0.587,-2.723 1.762,-4.271c2.349,-1.548 5.008,-0.533 5.008,-0.533l14.21,20.392l16.601,7.58l8.542,-0.054l18.737,-6.192l10.516,-18.844c0,0 2.242,-2.882 5.605,-1.388c3.363,1.495 2.296,4.858 2.296,4.858l-12.438,21.94l-18.631,6.566l0,33.845l10.944,23.595c-0,-0 1.174,2.348 0.48,6.139c-0.694,3.79 -5.178,27.118 -5.178,27.118c-0,-0 -1.014,4.217 -5.872,3.523c-4.858,-0.694 -4.217,-5.392 -4.217,-5.392l5.338,-27.011l-11.569,-26.531l0,27.812c0,0 0.252,1.548 -1.99,4.377c-2.242,2.83 -18.417,22.474 -18.417,22.474c-0,0 -3.096,2.563 -6.406,-0.427c-3.31,-2.989 -1.068,-6.352 -1.068,-6.352l17.51,-21.246l-0.374,-62.137l-15.161,-7.314c0,0 -1.761,-0.373 -3.416,-2.669c-1.655,-2.295 -12.812,-19.858 -12.812,-19.858Zm42.094,2.044c4.869,0 8.822,3.953 8.822,8.821c-0,4.869 -3.953,8.822 -8.822,8.822c-4.868,-0 -8.821,-3.953 -8.821,-8.822c0,-4.868 3.953,-8.821 8.821,-8.821Zm-250.467,122.767l130.837,-232.656l27.491,-10.436l31.31,4.073c-0,-0 -21.382,43.527 -7.891,71.527c0.254,26.728 0.254,39.964 0.254,39.964l7.382,17.055c0,-0 -10.691,30.291 -15.273,39.2c13.491,-1.527 12.982,0.255 12.982,0.255l11.455,17.309c-0,-0 2.636,38.345 -2.2,53.873c-52.691,-0 -196.347,-0.164 -196.347,-0.164Z" style="fill:#fff;"/></svg>