<?xml version="1.0" encoding="UTF-8" standalone="no"?><!DOCTYPE svg PUBLIC "-//W3C//DTD SVG 1.1//EN" "http://www.w3.org/Graphics/SVG/1.1/DTD/svg11.dtd"><svg width="100%" height="100%" viewBox="0 0 300 300" version="1.1" xmlns="http://www.w3.org/2000/svg" xmlns:xlink="http://www.w3.org/1999/xlink" xml:space="preserve" xmlns:serif="http://www.serif.com/" style="fill-rule:evenodd;clip-rule:evenodd;stroke-linejoin:round;stroke-miterlimit:2;"><path d="M51.891,201.172c-0,0 -27.135,-4.069 -28.119,-33.545c-0.991,-29.654 31.325,-32.312 31.325,-32.312c0,0 -2.466,-4.686 6.907,-19.732c-17.513,-9.373 -26.943,-37.007 -15.415,-55.242c18.273,-28.906 46.74,-19.249 46.74,-19.249c-0,0 10.606,-14.799 29.845,-16.772c13.32,-17.02 38.368,-21.076 58.211,-16.28c32.81,7.932 43.658,37.245 43.658,37.245c0,0 -4.932,2.514 -7.559,7.969c13.74,-11.012 30.573,-2.797 35.462,2.021c13.942,13.74 4.849,31.723 4.849,31.723c0,0 15.357,4.446 17.983,26.773c2.627,22.328 -6.567,29.64 -6.567,29.64c0,-0 -11.315,-25.8 -34.653,-11.05c0,0 36.507,-1.045 31.095,32.804c-5.49,34.337 -39.784,33.977 -39.784,33.977c0,0 -1.515,-23.136 -22.832,-26.571c5.455,-24.651 -24.45,-36.169 -38.695,-20.004c-25.662,-22.53 -64.458,-15.001 -63.649,27.076c-27.885,-13.59 -48.201,11.69 -48.802,21.529Zm44.286,-130.11c34.244,-26.641 51.521,8.225 51.521,8.225c-0,-0 -1.345,-21.984 -20.071,-25.967c-25.739,-5.475 -31.45,17.742 -31.45,17.742Zm58.866,22.762c35.744,-11.69 39.623,20.277 39.623,20.277c0,0 4.397,-16.294 -7.604,-24.57c-17.751,-12.243 -32.019,4.293 -32.019,4.293Zm-56.021,47.492c3.621,-21.098 24.726,-13.863 24.726,-13.863c-0,-0 -7.914,-9.208 -18.57,-3.311c-10.378,5.743 -6.156,17.174 -6.156,17.174Zm-68.131,152.518c0,-0 0.97,-21.984 12.447,-35.159c1.293,15.034 10.669,17.701 10.669,17.701c-0,-0 -6.789,-51.434 34.35,-71.53c0.889,21.045 9.815,30.178 9.815,30.178c0,-0 -1.732,-11.72 6.754,-23.52c8.487,-11.801 32.977,-30.538 40.251,-47.606c19.074,22.537 15.114,53.007 13.74,57.453c14.952,-18.994 29.986,-22.47 29.986,-22.47c-0,0 -4.688,16.408 -4.041,34.512c0.646,18.105 10.028,32.896 10.591,32.896c0.562,-0 3.634,-15.761 25.537,-20.853c-4.688,26.349 7.193,48.333 7.193,48.333l-197.292,0.065Z" style="fill:#fff;"/></svg>