<?xml version="1.0" encoding="UTF-8" standalone="no"?><!DOCTYPE svg PUBLIC "-//W3C//DTD SVG 1.1//EN" "http://www.w3.org/Graphics/SVG/1.1/DTD/svg11.dtd"><svg width="100%" height="100%" viewBox="0 0 300 300" version="1.1" xmlns="http://www.w3.org/2000/svg" xmlns:xlink="http://www.w3.org/1999/xlink" xml:space="preserve" xmlns:serif="http://www.serif.com/" style="fill-rule:evenodd;clip-rule:evenodd;stroke-linecap:square;stroke-linejoin:round;stroke-miterlimit:1.5;"><g><path d="M10.128,220.652c21.882,16.901 41.485,18.597 70.413,0.636c25.113,17.325 41.617,17.775 69.777,0.159c26.226,17.51 41.803,17.775 69.618,-0c26.438,17.351 44.081,17.431 69.936,-0.795m-279.744,24.339c21.882,16.901 41.485,18.596 70.413,0.635c25.113,17.325 41.617,17.776 69.777,0.159c26.226,17.511 41.803,17.775 69.618,0c26.438,17.352 44.081,17.431 69.936,-0.794m-279.744,24.09c21.882,16.901 41.485,18.596 70.413,0.636c25.113,17.325 41.617,17.775 69.777,0.159c26.226,17.51 41.803,17.775 69.618,-0c26.438,17.351 44.081,17.43 69.936,-0.795" style="fill:none;stroke:#fff;stroke-width:8.33px;"/><path d="M68.076,192.37c0,-0 -5.166,-4.043 -2.393,-9.379c2.772,-5.336 7.546,-5.744 9.924,-4.684c2.378,1.059 31.761,14.104 31.761,14.104l18.055,-7.037l14.042,-31.35c0,-0 3.978,-5.908 10.305,-3.407c6.328,2.502 4.818,8.559 4.818,8.559l-14.603,33.318l11.043,29.064l-35.999,13.813l-10.772,-28.074l-36.181,-14.927Zm36.006,-35.177c7.661,-2.939 16.267,0.894 19.207,8.555c2.939,7.662 -0.894,16.268 -8.555,19.207c-7.662,2.94 -16.268,-0.893 -19.207,-8.555c-2.94,-7.661 0.893,-16.267 8.555,-19.207Z" style="fill:#fff;"/></g></svg>