<?xml version="1.0" encoding="UTF-8" standalone="no"?><!DOCTYPE svg PUBLIC "-//W3C//DTD SVG 1.1//EN" "http://www.w3.org/Graphics/SVG/1.1/DTD/svg11.dtd"><svg width="100%" height="100%" viewBox="0 0 300 300" version="1.1" xmlns="http://www.w3.org/2000/svg" xmlns:xlink="http://www.w3.org/1999/xlink" xml:space="preserve" xmlns:serif="http://www.serif.com/" style="fill-rule:evenodd;clip-rule:evenodd;stroke-linejoin:round;stroke-miterlimit:2;"><rect id="Artboard1" x="0" y="0" width="300" height="300" style="fill:none;"/><clipPath id="_clip1"><rect id="Artboard11" serif:id="Artboard1" x="0" y="0" width="300" height="300"/></clipPath><g clip-path="url(#_clip1)"><path d="M81.041,7.426l0.413,-5.819l11.637,0.825l-0.413,5.819c0,-0 -0.133,2.091 0.26,4.63l0.892,5.765l-11.529,1.785l-0.892,-5.765c-0.615,-3.969 -0.368,-7.24 -0.368,-7.24Zm12.86,30.048l-3.181,-4.889l9.78,-6.362l3.181,4.89c2.039,3.135 4.218,6.548 6.458,10.107l3.108,4.937l-9.874,6.214l-3.107,-4.936c-2.208,-3.507 -4.356,-6.871 -6.365,-9.961Zm18.778,30.145l-3.007,-4.999l9.998,-6.013l3.006,4.999c2.151,3.574 4.215,7.049 6.116,10.296l2.948,5.034l-10.067,5.895l-2.948,-5.033c-1.88,-3.21 -3.921,-6.645 -6.046,-10.179Zm15.301,29.966l-1.227,-5.703l11.406,-2.453l1.227,5.703c0.893,4.154 1.292,8.433 1.362,12.96l0.091,5.833l-11.665,0.181l-0.091,-5.833c-0.058,-3.733 -0.366,-7.263 -1.103,-10.688Zm-0.234,33.893l0.472,-5.814l11.628,0.942l-0.471,5.814c-0.023,0.28 -0.045,0.56 -0.068,0.842c-0.302,3.767 -0.652,7.354 -0.868,10.912l-0.355,5.822l-11.645,-0.71l0.355,-5.822c0.221,-3.63 0.576,-7.29 0.884,-11.135c0.023,-0.285 0.046,-0.569 0.068,-0.851Zm1.282,37.49l-1.539,-5.627l11.253,-3.078l1.539,5.627c0.883,3.226 2.105,6.64 3.76,10.331l2.388,5.322l-10.645,4.775l-2.388,-5.323c-1.926,-4.295 -3.341,-8.272 -4.368,-12.027Zm16.401,33.477l-3.092,-4.946l9.892,-6.185l3.093,4.946c1.987,3.178 4.124,6.534 6.344,9.994l3.152,4.908l-9.818,6.303l-3.151,-4.909c-2.247,-3.5 -4.409,-6.895 -6.42,-10.111Zm19.342,30.124l-3.158,-4.905l9.81,-6.315l3.157,4.905c2.196,3.41 4.36,6.79 6.436,10.078l3.115,4.932l-9.863,6.23l-3.116,-4.932c-2.059,-3.26 -4.204,-6.611 -6.381,-9.993Zm18.456,30.095l-2.804,-5.116l10.232,-5.606l2.803,5.115c0.664,1.213 1.281,2.373 1.846,3.474c1.465,2.857 2.635,4.827 3.645,6.201l3.455,4.701l-9.401,6.909l-3.455,-4.7c-1.271,-1.731 -2.782,-4.191 -4.626,-7.789c-0.519,-1.011 -1.085,-2.076 -1.695,-3.189Zm22.062,27.066l-2.83,-5.101l10.202,-5.66l2.83,5.101c0.886,1.598 1.845,3.404 2.884,5.448l2.644,5.199l-10.399,5.288l-2.644,-5.199c-0.969,-1.905 -1.861,-3.588 -2.687,-5.076Z" style="fill:#f00;"/></g></svg>